<svg width="142" height="98" viewBox="0 0 142 98" fill="none" xmlns="http://www.w3.org/2000/svg"><path fill-rule="evenodd" clip-rule="evenodd" d="M81 12a9 9 0 0 1 9-9h31l20 20v39a9 9 0 0 1-9 9H90a9 9 0 0 1-9-9V12z" fill="#ED204B"/><path fill-rule="evenodd" clip-rule="evenodd" d="M121 3l20 20h-11a9 9 0 0 1-9-9V3z" fill="#C7183C"/><path d="M104 52l8.036 6.102L120.071 52" stroke="#fff" stroke-linecap="square"/><path d="M105.781 36.61c0 1.277-.377 2.264-1.133 2.962-.75.692-1.817 1.039-3.203 1.039h-.867V44.4h-3.086V32.978h3.953c1.443 0 2.526.315 3.25.945.724.63 1.086 1.526 1.086 2.688zm-5.203 1.485h.563c.463 0 .83-.13 1.101-.39.276-.26.414-.62.414-1.078 0-.771-.427-1.157-1.281-1.157h-.797v2.625zm16.719.352c0 1.906-.526 3.375-1.578 4.406-1.047 1.031-2.521 1.547-4.422 1.547h-3.695V32.978h3.953c1.833 0 3.247.469 4.242 1.406 1 .938 1.5 2.292 1.5 4.063zm-3.203.11c0-1.048-.209-1.824-.625-2.329-.412-.505-1.039-.758-1.883-.758h-.898v6.399h.687c.937 0 1.625-.271 2.063-.813.437-.547.656-1.38.656-2.5zm8.297 5.843h-3.039V32.978h6.75v2.477h-3.711v2.18h3.421v2.476h-3.421V44.4z" fill="#fff"/><path d="M58 43.964l8-6-8-6" stroke="#ACACAC" stroke-linecap="square"/><path d="M3 94.962c40.744 1.794 17.125-60.595 63-56.795" stroke="#ACACAC"/><path fill-rule="evenodd" clip-rule="evenodd" d="M3 97a2 2 0 1 0 0-4 2 2 0 0 0 0 4z" fill="#ACACAC"/></svg>