<svg width="142" height="98" viewBox="0 0 142 98" fill="none" xmlns="http://www.w3.org/2000/svg">
	<path fill-rule="evenodd" clip-rule="evenodd" d="M81 12C81 7.02944 85.0294 3 90 3H121L141 23V62C141 66.9706 136.971 71 132 71H90C85.0294 71 81 66.9706 81 62V12Z" fill="#ED204B"/>
	<path fill-rule="evenodd" clip-rule="evenodd" d="M121 3L141 23H130C125.029 23 121 18.9706 121 14V3Z" fill="#C7183C"/>
	<path d="M104 52L112.036 58.1017L120.071 52" stroke="white" stroke-linecap="square"/>
	<path d="M105.781 36.6108C105.781 37.8869 105.404 38.8739 104.648 39.5718C103.898 40.2645 102.831 40.6108 101.445 40.6108H100.578V44.3999H97.4922V32.978H101.445C102.888 32.978 103.971 33.2931 104.695 33.9233C105.419 34.5535 105.781 35.4494 105.781 36.6108ZM100.578 38.0952H101.141C101.604 38.0952 101.971 37.965 102.242 37.7046C102.518 37.4442 102.656 37.0848 102.656 36.6265C102.656 35.8556 102.229 35.4702 101.375 35.4702H100.578V38.0952ZM117.297 38.4468C117.297 40.353 116.771 41.8218 115.719 42.853C114.672 43.8843 113.198 44.3999 111.297 44.3999H107.602V32.978H111.555C113.388 32.978 114.802 33.4468 115.797 34.3843C116.797 35.3218 117.297 36.6759 117.297 38.4468ZM114.094 38.5562C114.094 37.5093 113.885 36.7332 113.469 36.228C113.057 35.7228 112.43 35.4702 111.586 35.4702H110.688V41.8687H111.375C112.312 41.8687 113 41.5978 113.438 41.0562C113.875 40.5093 114.094 39.6759 114.094 38.5562ZM122.391 44.3999H119.352V32.978H126.102V35.4546H122.391V37.6343H125.812V40.1108H122.391V44.3999Z" fill="white"/>
	<path d="M58 43.9643L66 37.9643L58 31.9643" stroke="#ACACAC" stroke-linecap="square"/>
	<path d="M3 94.962C43.7437 96.7557 20.1245 34.3673 66 38.1668" stroke="#ACACAC"/>
	<path fill-rule="evenodd" clip-rule="evenodd" d="M3 97C4.10457 97 5 96.1046 5 95C5 93.8954 4.10457 93 3 93C1.89543 93 1 93.8954 1 95C1 96.1046 1.89543 97 3 97Z" fill="#ACACAC"/>
</svg>